<svg xmlns="http://www.w3.org/2000/svg" xmlns:xlink="http://www.w3.org/1999/xlink" version="1.1" x="0px" y="0px" viewBox="0 0 100 125" enable-background="new 0 0 100 100" xml:space="preserve"><g><path d="M38.4,42c-0.4,0.4-0.4,0.7-0.3,1.2c0.5,1.2,1.1,2.4,1.8,3.5L31,55.5c-3-4.1-5.6-8.4-7.4-13.3c-1.1-3-1.9-6-1.6-9.2   c0.2-2,0.9-3.7,2.4-5.1c1.5-1.5,3.1-3.1,4.6-4.6c2-2,4.6-2,6.6,0c1.3,1.2,2.5,2.5,3.7,3.7c1.2,1.2,2.4,2.4,3.7,3.7   c2.1,2.1,2.1,4.6,0,6.7C41.4,39,40,40.5,38.4,42z M76.5,71.1c2-2.1,2-4.7,0-6.7C74,62,71.6,59.5,69.1,57c-2-2-4.5-2-6.6,0   c-1.5,1.5-3.1,3.1-4.6,4.6c-0.4,0.4-0.8,0.5-1.3,0.3c-0.9-0.6-2-1-3-1.6c-0.2-0.1-0.4-0.3-0.6-0.4l-8.9,8.9c3.1,2.3,6.3,4.3,9.9,6   c3.6,1.7,7.2,3.1,11.1,3.3c2.8,0.2,5.2-0.6,7.1-2.7C73.6,73.9,75.1,72.6,76.5,71.1z M74.9,43.2c-2.8,2.8-6.6,4-10.3,3.6   c-2.2-0.2-4.4,0.5-5.9,2L30.8,76.8c-2.1,2.1-5.6,2.1-7.8,0c-2.1-2.1-2.2-5.6,0-7.8l28.4-28.4c1.5-1.5,2.2-3.5,2-5.6   c-0.2-3.5,1-7.1,3.6-9.8c3.2-3.2,7.8-4.3,12-3.3c0.3,0.1,0.4,0.5,0.2,0.7l-5.1,5.1c-1.5,1.5-1.5,4,0,5.5l2.3,2.3   c1.5,1.5,4,1.5,5.5,0l5.4-5.4c0.2-0.2,0.6-0.1,0.7,0.2C79.4,34.8,78.4,39.7,74.9,43.2z M57.2,42.5c-0.6-0.6-1.6-0.6-2.3,0   L26.2,71.3c-0.6,0.6-0.6,1.6,0,2.3c0.6,0.6,1.6,0.6,2.3,0l28.7-28.7C57.9,44.2,57.9,43.1,57.2,42.5z"/></g></svg>