<svg xmlns="http://www.w3.org/2000/svg" xmlns:xlink="http://www.w3.org/1999/xlink" version="1.1" x="0px" y="0px" viewBox="0 0 100 125" enable-background="new 0 0 100 100" xml:space="preserve"><g><path d="M57.6,76.6c-1.4,1.5-3.1,2-5.1,1.9c-2.9-0.2-5.5-1.1-8.1-2.4c-5.7-2.8-10.5-6.6-14.6-11.4c-3-3.6-5.5-7.5-7.1-11.9   c-0.8-2.1-1.4-4.3-1.2-6.6c0.1-1.4,0.6-2.6,1.7-3.6c1.1-1.1,2.2-2.2,3.3-3.3c1.4-1.4,3.3-1.4,4.7,0c0.9,0.9,1.8,1.8,2.7,2.7   c0.9,0.9,1.7,1.7,2.6,2.6c1.5,1.5,1.5,3.3,0,4.8c-1.1,1.1-2.2,2.2-3.3,3.2c-0.3,0.3-0.3,0.5-0.2,0.9c0.7,1.7,1.8,3.3,3,4.7   c2.4,2.9,5,5.5,8.2,7.5c0.7,0.4,1.4,0.7,2.2,1.1c0.4,0.2,0.6,0.1,0.9-0.2c1.1-1.1,2.2-2.2,3.3-3.3c1.4-1.4,3.3-1.4,4.7,0   c1.8,1.8,3.5,3.5,5.3,5.3c1.5,1.5,1.5,3.3,0,4.8C59.6,74.6,58.5,75.5,57.6,76.6z M73.3,52.1c-5.9,5.9-14.9,6.8-21.8,2.8l0,0   c-2.7,2-5.6,2.4-7.6,2.1c-0.7-0.1-0.8-1-0.2-1.3c1.9-0.9,3-2.7,3.7-4.2l-0.2-0.2c-6.3-7.1-6-17.9,0.8-24.6c7-7,18.4-7,25.4,0   C80.3,33.8,80.3,45.1,73.3,52.1z M58.4,31.3c0,1.6,1.3,3,2.9,3c1.6,0,2.9-1.3,2.9-2.9c0-1.6-1.3-3-2.9-3   C59.7,28.3,58.4,29.6,58.4,31.3z M64.8,47.5c-0.3,0.1-0.5,0.3-0.8,0.4c-0.4,0.1-0.7,0.3-1.1,0.3c-0.4,0-0.8-0.2-0.9-0.6   c-0.1-0.3-0.1-0.7-0.1-1c0.1-0.7,0.2-1.4,0.3-2.1c0.4-2.1,0.8-4.2,1.1-6.3c0.1-0.6,0.2-1.1,0.2-1.7c0-0.7-0.4-1-1.1-1   c-1,0-1.9,0-2.9,0c-0.9,0-1.8,0-2.7,0c-0.2,0-0.4,0-0.7,0.1c-0.4,0.1-0.6,0.3-0.7,0.6c0,0.3,0.1,0.6,0.5,0.7c0.3,0.1,0.6,0.1,1,0.2   c0.8,0.1,1,0.4,1,1.1c0,0.1,0,0.2,0,0.4c-0.3,1.8-0.6,3.7-1,5.5c-0.2,1.1-0.3,2.1-0.5,3.2c-0.2,1.5,1.3,3,2.4,3.2   c0.7,0.1,1.4,0.1,2.1,0.1c1.5,0,2.8-0.7,3.9-1.7c0.2-0.2,0.3-0.4,0.4-0.7C65.6,47.7,65.2,47.4,64.8,47.5z"/></g></svg>